# Blender v2.82 (sub 7) OBJ File: ''
# www.blender.org
mtllib spaceship.mtl
o Cube.001
v 0.749744 0.059430 -0.428599
v 0.930686 0.010936 -0.908889
v 0.793012 0.504001 -1.109801
v 0.739563 0.502511 -1.004365
v -0.885724 -0.011286 -0.353519
v -0.973447 -0.011286 -1.006283
v -2.645948 0.237810 -2.011873
v -2.402453 0.237810 -1.611896
v 0.512491 -0.369150 -0.996917
v 0.512492 0.114912 -0.996917
v 1.026513 -0.011286 -0.993678
v 1.026513 -0.217046 -0.993678
v -0.315107 -0.369150 1.606711
v -0.086290 -0.162120 4.216997
v -0.160674 -0.162120 4.216528
v -0.622552 -0.217046 1.604773
v -0.086290 -0.066212 4.216997
v -0.160674 -0.066212 4.216528
v 0.642735 -0.217046 1.612748
v 0.642735 -0.011286 1.612748
v 0.145454 -0.066212 4.218457
v 0.145454 -0.162120 4.218457
v -0.401298 -0.369150 0.301745
v -0.798000 -0.217046 0.299245
v 0.834624 -0.217046 0.309535
v 0.834624 -0.011286 0.309535
v -0.353900 -0.011286 2.458790
v -0.622552 -0.011286 1.604773
v -0.444394 -0.369150 -0.350737
v -0.885724 -0.217046 -0.353519
v -0.798000 -0.011286 0.299245
v -0.401298 0.114912 0.301745
v -0.007719 0.421860 1.627883
v -0.296454 0.267230 1.624741
v -0.296269 0.248549 1.617601
v -0.007534 0.403179 1.620743
v 0.463752 -0.369150 -0.345013
v 0.415013 -0.369150 0.306890
v -0.004597 -0.369150 0.304246
v -0.003063 -0.369150 -0.347956
v 0.066774 -0.066212 4.217962
v 0.343781 -0.011286 2.463187
v -0.013937 -0.011286 2.604175
v -0.011906 -0.066212 4.217466
v 0.317536 -0.369150 1.610698
v -0.007662 -0.369150 1.608648
v 0.066774 -0.162120 4.217962
v -0.011906 -0.162120 4.217466
v -0.355468 -0.253604 -1.002388
v -0.437490 0.114912 -1.002905
v -0.436229 0.114912 -1.202901
v -0.354208 -0.253604 -1.202384
v 0.351576 0.031715 2.241935
v 0.409737 0.142618 0.336323
v 0.389930 0.140106 0.335137
v 0.331770 0.029203 2.240749
v -0.973447 -0.217046 -1.006283
v -0.487489 0.114912 -1.003220
v -0.487489 -0.369150 -1.003220
v -0.013678 -0.001519 2.585258
v 0.324400 -0.001008 2.452271
v 0.324585 -0.019689 2.445131
v -0.013493 -0.020200 2.578118
v 0.463752 0.114912 -0.345013
v 0.512492 0.445129 -0.996917
v 0.463752 0.445129 -0.345013
v 0.588798 0.092840 -0.911095
v 0.553200 0.144315 -0.429785
v 0.553310 0.749508 -1.065509
v 0.586540 0.748018 -1.170984
v 0.930568 -0.217046 -0.342071
v 0.415013 0.114912 0.306890
v 0.048469 0.537488 -0.999842
v 0.462492 0.408349 -0.997232
v 0.463753 0.408349 -1.197228
v 0.049729 0.537488 -1.199838
v 0.930568 -0.011286 -0.342071
v 0.380471 -0.253604 -0.997749
v 0.048469 -0.319149 -0.999842
v 0.049729 -0.319149 -1.199838
v 0.381732 -0.253604 -1.197745
v -0.001530 -0.369150 -1.000157
v -0.359135 0.030816 2.242679
v -0.319211 0.239660 1.600277
v -0.299414 0.237006 1.599280
v -0.339337 0.028162 2.241683
v 1.951286 -0.404231 -0.417857
v 2.170062 -0.404231 -0.708427
v -0.444394 0.114912 -0.350737
v -0.007573 0.430651 1.588761
v 0.300544 0.278218 1.590639
v 0.300766 0.258446 1.587637
v -0.007350 0.410879 1.585759
v -0.001530 0.605459 -1.000157
v -0.003063 0.605459 -0.347956
v -0.298106 0.278603 1.586864
v -0.297883 0.258831 1.583862
v -0.487489 0.445129 -1.003220
v -0.444394 0.445129 -0.350737
v -0.004597 0.605459 0.304246
v -0.401298 0.445129 0.301745
v 0.415013 0.445129 0.306890
v -0.437490 0.408974 -1.002905
v -0.051529 0.536313 -1.000472
v -0.050269 0.536313 -1.200468
v -0.436229 0.408974 -1.202901
v -1.905404 -0.404231 -0.442163
v -1.905404 -0.498990 -0.442163
v -2.402453 0.180987 -1.611896
v -2.120501 -0.404231 -0.735467
v -2.120501 -0.498990 -0.735467
v 1.951286 -0.498990 -0.417857
v 2.170062 -0.498990 -0.708427
v -2.645948 0.180987 -2.011873
v 2.711554 0.180987 -1.978109
v 2.711554 0.237810 -1.978109
v 2.463038 0.237810 -1.581232
v 2.463038 0.180987 -1.581232
v -0.704125 0.060591 -0.437761
v -0.879018 0.012086 -0.920296
v -0.564240 0.091692 -0.918370
v -0.532827 0.143155 -0.436622
v -0.532717 0.748348 -1.072346
v -0.566499 0.746869 -1.178259
v -0.746613 0.505151 -1.119506
v -0.694481 0.503672 -1.013402
v 0.048469 -0.011286 -0.999842
v -0.001530 -0.011286 -1.000157
v 0.462492 0.114912 -0.997232
v -0.051529 -0.319150 -1.000472
v -0.051529 -0.011286 -1.000472
v -0.050269 -0.011286 -1.200468
v -0.050269 -0.319150 -1.200468
v 0.049729 -0.011286 -1.199838
v 0.463753 0.114912 -1.197228
v 0.298560 0.266937 1.628511
v 0.317536 0.267860 1.610698
v -0.334455 -0.000841 2.448433
v -0.315107 0.267860 1.606711
v -0.007662 0.428191 1.608648
v -0.396214 0.142006 0.330602
v -0.404233 0.412247 0.331006
v -0.004691 0.602897 0.324106
v 0.395267 0.450592 0.326693
v -0.381897 0.450967 0.321796
v 0.321584 0.239032 1.604165
v 0.417489 0.411502 0.336787
v -0.334270 -0.019522 2.441293
v 0.298745 0.248256 1.621371
v -0.376416 0.139352 0.329606
v -0.384435 0.409593 0.330010
v 0.395490 0.430820 0.323691
v -0.004467 0.583125 0.321104
v -0.381674 0.431195 0.318794
v 0.397682 0.408990 0.335601
v 0.301778 0.236520 1.602979
vt 0.847840 0.511210
vt 0.870910 0.510627
vt 0.870910 0.510627
vt 0.847840 0.511210
vt 0.843750 0.750000
vt 0.875000 0.750000
vt 0.875000 0.750000
vt 0.843750 0.750000
vt 0.375000 0.185746
vt 0.625000 0.185746
vt 0.625000 0.250000
vt 0.375000 0.250000
vt 0.250000 0.689254
vt 0.375000 0.689254
vt 0.375000 0.750000
vt 0.250000 0.750000
vt 0.625000 0.689254
vt 0.625000 0.750000
vt 0.375000 0.375000
vt 0.625000 0.375000
vt 0.625000 0.500000
vt 0.375000 0.500000
vt 0.187500 0.689254
vt 0.187500 0.750000
vt 0.375000 0.312500
vt 0.625000 0.312500
vt 0.750000 0.689254
vt 0.750000 0.750000
vt 0.156250 0.689254
vt 0.156250 0.750000
vt 0.625000 0.875000
vt 0.375000 0.875000
vt 0.625000 0.937500
vt 0.375000 0.937500
vt 0.812500 0.689254
vt 0.812500 0.750000
vt 0.750000 0.628392
vt 0.750000 0.685653
vt 0.750000 0.685653
vt 0.750000 0.628392
vt 0.156250 0.564254
vt 0.187500 0.564254
vt 0.187500 0.628508
vt 0.156250 0.628508
vt 0.625000 0.564254
vt 0.750000 0.564254
vt 0.750000 0.628508
vt 0.625000 0.628508
vt 0.250000 0.564254
vt 0.250000 0.628508
vt 0.375000 0.564254
vt 0.375000 0.628508
vt 0.402475 0.066996
vt 0.625000 0.066996
vt 0.625000 0.066996
vt 0.402475 0.066996
vt 0.753311 0.564254
vt 0.811462 0.564254
vt 0.811462 0.564254
vt 0.753311 0.564254
vt 0.375000 0.000000
vt 0.625000 0.000000
vt 0.625000 0.060746
vt 0.375000 0.060746
vt 0.750000 0.628416
vt 0.750000 0.567839
vt 0.750000 0.567839
vt 0.750000 0.628416
vt 0.843750 0.564254
vt 0.875000 0.564254
vt 0.875000 0.564254
vt 0.843750 0.564254
vt 0.870909 0.553654
vt 0.847840 0.553072
vt 0.847840 0.553072
vt 0.870909 0.553654
vt 0.250000 0.500000
vt 0.187500 0.500000
vt 0.750000 0.500000
vt 0.156250 0.500000
vt 0.812500 0.500000
vt 0.812500 0.564254
vt 0.625000 0.127742
vt 0.625000 0.179496
vt 0.625000 0.179496
vt 0.625000 0.127742
vt 0.125000 0.500000
vt 0.125000 0.564254
vt 0.843750 0.500000
vt 0.402407 0.179496
vt 0.408023 0.127742
vt 0.408023 0.127742
vt 0.402407 0.179496
vt 0.125000 0.628508
vt 0.125000 0.689254
vt 0.753234 0.689254
vt 0.753581 0.689254
vt 0.753581 0.689254
vt 0.753234 0.689254
vt 0.125000 0.750000
vt 0.812500 0.500000
vt 0.843750 0.500000
vt 0.843750 0.689254
vt 0.750951 0.628518
vt 0.750949 0.567742
vt 0.750949 0.567742
vt 0.750951 0.628518
vt 0.875000 0.628508
vt 0.843750 0.628508
vt 0.750948 0.685802
vt 0.750948 0.685802
vt 0.875000 0.689254
vt 0.843750 0.689254
vt 0.812500 0.628508
vt 0.812500 0.689254
vt 0.812500 0.564254
vt 0.625000 0.066996
vt 0.625000 0.115242
vt 0.625000 0.115242
vt 0.625000 0.066996
vt 0.875000 0.689254
vt 0.625000 0.937500
vt 0.375000 0.937500
vt 0.375000 0.968750
vt 0.625000 0.968750
vt 0.625000 0.968750
vt 0.375000 0.968750
vt 0.625000 0.968750
vt 0.375000 0.968750
vt 0.375000 0.312500
vt 0.156250 0.500000
vt 0.625000 0.312500
vt 0.843750 0.750000
vt 0.812500 0.750000
vt 0.187500 0.750000
vt 0.156250 0.750000
vt 0.187500 0.500000
vt 0.625000 1.000000
vt 0.375000 1.000000
vt 0.125000 0.500000
vt 0.625000 0.250000
vt 0.843750 0.500000
vt 0.156250 0.500000
vt 0.875000 0.500000
vt 0.875000 0.500000
vt 0.375000 0.250000
vt 0.375000 0.000000
vt 0.625000 0.000000
vt 0.156250 0.750000
vt 0.125000 0.750000
vt 0.847839 0.738828
vt 0.870910 0.739414
vt 0.870910 0.699815
vt 0.847840 0.700399
vt 0.847840 0.700399
vt 0.870910 0.699815
vt 0.870910 0.739414
vt 0.847839 0.738828
vt 0.375000 0.121492
vt 0.625000 0.127742
vt 0.625000 0.121492
vt 0.631844 0.179496
vt 0.625000 0.185746
vt 0.625000 0.121492
vt 0.407956 0.115242
vt 0.625000 0.115242
vt 0.625000 0.060746
vt 0.625000 0.115242
vt 0.407956 0.115242
vt 0.625000 0.127742
vt 0.631844 0.179496
vt 0.750000 0.567887
vt 0.750000 0.564254
vt 0.750000 0.685708
vt 0.750000 0.689254
vt 0.750000 0.628508
vt 0.811484 0.689254
vt 0.811253 0.689254
vt 0.811549 0.628506
vt 0.811552 0.567167
vt 0.811552 0.686365
vt 0.753666 0.564254
vt 0.811227 0.564254
vt 0.750000 0.685708
vt 0.750000 0.567887
vt 0.811484 0.689254
vt 0.811253 0.689254
vt 0.811552 0.567167
vt 0.811549 0.628506
vt 0.811552 0.686365
vt 0.811227 0.564254
vt 0.753666 0.564254
vn 0.8629 0.3964 0.3135
vn 0.1968 0.9785 -0.0619
vn 0.0063 0.0000 -1.0000
vn -0.3689 -0.9246 0.0952
vn -0.0063 0.0000 1.0000
vn 0.9823 0.0000 0.1875
vn -0.3965 -0.9172 0.0397
vn 0.9893 0.0000 0.1457
vn -0.1065 0.9934 0.0427
vn -0.3412 -0.9394 0.0342
vn -0.9847 0.0000 0.1741
vn -0.9911 0.0000 0.1332
vn -0.2495 0.9670 0.0513
vn 0.1773 -0.3498 0.9199
vn -0.0000 -1.0000 0.0000
vn 0.0108 0.9994 0.0335
vn -0.0005 -0.9969 0.0791
vn -0.9761 -0.2173 -0.0062
vn -0.1288 0.9902 0.0537
vn -0.3457 0.3320 -0.8776
vn -0.0118 0.9994 0.0335
vn 0.9972 0.0000 0.0746
vn -0.9909 -0.0792 -0.1091
vn 0.3502 -0.9316 0.0971
vn 0.3776 -0.9250 0.0419
vn 0.0939 0.9947 0.0417
vn 0.3242 -0.9453 0.0360
vn 0.2332 0.9710 0.0532
vn 0.2978 0.9546 0.0019
vn 0.2959 -0.9547 0.0328
vn 0.2735 0.9614 0.0304
vn 0.1937 -0.9811 0.0012
vn -0.1417 -0.9388 -0.3140
vn -0.3117 -0.9497 0.0312
vn 0.3645 0.9232 0.1217
vn -0.2884 0.9571 0.0289
vn 0.0805 0.1505 -0.9853
vn 0.3106 0.9504 0.0120
vn -0.0715 0.1489 -0.9863
vn -0.3269 0.9450 0.0104
vn -0.3574 0.9339 0.0114
vn 0.3401 0.9403 0.0131
vn -0.3133 0.9497 -0.0020
vn -0.9978 -0.0000 0.0659
vn -0.5563 -0.0000 0.8310
vn -0.6385 0.0000 0.7696
vn -0.8064 0.0000 0.5914
vn 0.7989 0.0000 0.6015
vn 0.5458 0.0000 0.8379
vn -0.3660 0.9232 0.1171
vn -0.2834 -0.0000 -0.9590
vn 0.2725 -0.9582 -0.0872
vn -0.2714 -0.9582 -0.0907
vn 0.2955 0.0000 -0.9553
vn -0.8542 0.0000 0.5200
vn 0.8475 0.0000 0.5307
vn -0.1960 0.9785 -0.0644
vn 0.6288 0.0000 0.7776
vn -0.5044 0.0000 -0.8634
vn 0.5153 0.0000 -0.8570
vn -0.3046 -0.9477 0.0958
vn 0.3033 -0.9477 0.0997
vn -0.3262 0.9447 0.0351
vn 0.2360 0.9714 0.0262
vn -0.2490 0.9682 0.0249
vn 0.3180 0.9474 0.0372
vn 0.0307 0.9984 -0.0473
vn -0.0438 0.9979 -0.0486
vn 0.2798 0.8864 0.3688
vn -0.3037 0.8845 0.3542
vn -0.7442 0.5960 0.3016
vn 0.7102 0.6407 0.2919
vn -0.1214 -0.3824 -0.9160
vn 0.4829 0.6642 0.5707
vn 0.9920 -0.0719 -0.1036
vn 0.1427 -0.3814 -0.9133
vn -0.8711 0.3848 0.3052
vn -0.5345 0.6412 0.5506
vn 1.0000 0.0000 0.0063
vn -1.0000 0.0000 -0.0063
vn -0.2108 -0.9775 -0.0013
vn 0.9761 -0.2173 0.0062
vn 0.1825 0.8663 0.4651
vn 0.2757 0.9163 0.2905
vn -0.1972 0.8638 0.4637
vn -0.2925 0.9129 0.2847
vn 0.4129 0.8302 0.3746
vn -0.4363 0.8198 0.3709
vn -0.9977 0.0640 0.0244
vn -0.9993 -0.0134 0.0356
vn -0.9396 0.3368 0.0605
vn -0.9857 0.1455 0.0853
vn 0.4401 0.8924 0.1001
vn 0.3537 0.9290 0.1090
vn -0.4614 0.8821 0.0947
vn -0.3727 0.9220 0.1046
vn -0.4106 0.8995 0.1495
vn 0.3900 0.9080 0.1528
vn 0.9446 0.3208 0.0691
vn 0.9976 0.0602 0.0353
vn 0.9861 0.1378 0.0929
vn 0.9989 -0.0130 0.0458
vn -0.3028 0.8910 0.3384
vn 0.2851 0.8946 0.3441
vn 0.9990 -0.0069 0.0439
vn -0.9995 -0.0195 0.0250
vn -0.1803 -0.3527 0.9182
vn 0.3703 0.3348 -0.8665
vn -0.9899 0.1327 0.0498
vn 0.1354 0.9893 0.0549
vn -0.1380 -0.9826 -0.1244
vn 0.0502 -0.0000 0.9987
vn 0.3907 0.9099 0.1391
vn -0.4112 0.9014 0.1359
vn -0.9972 0.0001 -0.0747
vn 0.0541 -0.1493 0.9873
vn -0.0637 -0.1505 0.9866
vn 0.9978 0.0209 -0.0632
vn 0.9903 0.1256 0.0593
vn 0.1321 -0.9835 -0.1238
vn 0.1379 -0.9400 -0.3120
vn -0.0598 0.0000 0.9982
usemtl Material.001
s 1
f 1/1/1 2/2/1 3/3/1 4/4/1
f 5/5/2 6/6/2 7/7/2 8/8/2
f 9/9/3 10/10/3 11/11/3 12/12/3
f 13/13/4 14/14/4 15/15/4 16/16/4
f 14/14/5 17/17/5 18/18/5 15/15/5
f 19/19/6 20/20/6 21/21/6 22/22/6
f 23/23/7 13/13/7 16/16/7 24/24/7
f 25/25/8 26/26/8 20/20/8 19/19/8
f 17/17/9 27/27/9 28/28/9 18/18/9
f 29/29/10 23/23/10 24/24/10 30/30/10
f 15/15/11 18/18/11 28/31/11 16/32/11
f 16/32/12 28/31/12 31/33/12 24/34/12
f 27/27/13 32/35/13 31/36/13 28/28/13
f 33/37/14 34/38/14 35/39/14 36/40/14
f 37/41/15 38/42/15 39/43/15 40/44/15
f 41/45/16 42/46/16 43/47/16 44/48/16
f 38/42/15 45/49/15 46/50/15 39/43/15
f 47/51/5 41/45/5 44/48/5 48/52/5
f 45/49/17 47/51/17 48/52/17 46/50/17
f 49/53/18 50/54/18 51/55/18 52/56/18
f 53/57/19 54/58/19 55/59/19 56/60/19
f 57/61/3 6/62/3 58/63/3 59/64/3
f 60/65/20 61/66/20 62/67/20 63/68/20
f 40/44/15 39/43/15 23/23/15 29/29/15
f 44/48/21 43/47/21 27/27/21 17/17/21
f 39/43/15 46/50/15 13/13/15 23/23/15
f 48/52/5 44/48/5 17/17/5 14/14/5
f 46/50/17 48/52/17 14/14/17 13/13/17
f 64/69/22 10/70/22 65/71/22 66/72/22
f 67/73/23 68/74/23 69/75/23 70/76/23
f 19/77/24 22/22/24 47/51/24 45/49/24
f 22/22/5 21/21/5 41/45/5 47/51/5
f 25/78/25 19/77/25 45/49/25 38/42/25
f 21/21/26 20/79/26 42/46/26 41/45/26
f 71/80/27 25/78/27 38/42/27 37/41/27
f 20/79/28 26/81/28 72/82/28 42/46/28
f 73/83/29 74/84/29 75/85/29 76/86/29
f 12/87/30 71/80/30 37/41/30 9/88/30
f 26/81/31 77/89/31 64/69/31 72/82/31
f 78/90/32 79/91/32 80/92/32 81/93/32
f 82/94/15 40/44/15 29/29/15 59/95/15
f 83/96/33 84/97/33 85/98/33 86/99/33
f 9/88/15 37/41/15 40/44/15 82/94/15
f 59/95/34 29/29/34 30/30/34 57/100/34
f 77/89/35 26/81/35 87/101/35 88/102/35
f 32/35/36 89/103/36 5/5/36 31/36/36
f 90/104/37 91/105/37 92/106/37 93/107/37
f 66/72/38 65/71/38 94/108/38 95/109/38
f 96/110/39 90/104/39 93/107/39 97/111/39
f 95/109/40 94/108/40 98/112/40 99/113/40
f 100/114/41 95/109/41 99/113/41 101/115/41
f 102/116/42 66/72/42 95/109/42 100/114/42
f 103/117/43 104/118/43 105/119/43 106/120/43
f 72/82/22 64/69/22 66/72/22 102/116/22
f 89/103/44 32/35/44 101/115/44 99/113/44
f 58/121/44 89/103/44 99/113/44 98/112/44
f 24/34/45 31/33/45 107/122/45 108/123/45
f 30/124/46 5/125/46 8/126/46 109/127/46
f 108/123/47 107/122/47 110/128/47 111/129/47
f 87/101/48 112/130/48 113/131/48 88/102/48
f 26/26/49 25/25/49 112/130/49 87/132/49
f 31/36/50 5/5/50 110/133/50 107/134/50
f 71/80/51 77/89/51 88/102/51 113/131/51
f 30/30/52 24/24/52 108/135/52 111/136/52
f 25/78/53 71/80/53 113/131/53 112/137/53
f 5/125/54 30/124/54 111/129/54 110/128/54
f 109/127/55 8/126/55 7/138/55 114/139/55
f 115/140/56 116/141/56 117/142/56 118/143/56
f 11/144/57 77/89/57 117/142/57 116/145/57
f 77/89/58 71/80/58 118/143/58 117/142/58
f 12/12/59 11/11/59 116/141/59 115/146/59
f 6/62/60 57/61/60 114/147/60 7/148/60
f 57/100/61 30/30/61 109/149/61 114/150/61
f 71/80/62 12/87/62 115/140/62 118/143/62
f 119/151/63 120/152/63 6/6/63 5/5/63
f 67/73/64 2/2/64 11/144/64 10/70/64
f 120/152/65 121/153/65 58/121/65 6/6/65
f 2/2/66 1/1/66 77/89/66 11/144/66
f 121/153/67 122/154/67 89/103/67 58/121/67
f 68/74/68 67/73/68 10/70/68 64/69/68
f 1/1/69 68/74/69 64/69/69 77/89/69
f 122/154/70 119/151/70 5/5/70 89/103/70
f 123/155/71 124/156/71 125/157/71 126/158/71
f 4/4/72 3/3/72 70/76/72 69/75/72
f 2/2/73 67/73/73 70/76/73 3/3/73
f 68/74/74 1/1/74 4/4/74 69/75/74
f 122/154/75 121/153/75 124/156/75 123/155/75
f 121/153/76 120/152/76 125/157/76 124/156/76
f 120/152/77 119/151/77 126/158/77 125/157/77
f 119/151/78 122/154/78 123/155/78 126/158/78
f 79/91/3 78/90/3 9/9/3 82/159/3
f 127/160/3 79/91/3 82/159/3 128/161/3
f 129/162/3 74/84/3 65/163/3 10/10/3
f 78/90/3 129/162/3 10/10/3 9/9/3
f 73/83/3 127/160/3 128/161/3 94/164/3
f 74/84/3 73/83/3 94/164/3 65/163/3
f 130/165/3 131/166/3 128/161/3 82/159/3
f 49/53/3 130/165/3 82/159/3 59/64/3
f 50/54/3 49/53/3 59/64/3 58/63/3
f 131/166/3 104/118/3 94/164/3 128/161/3
f 104/118/3 103/117/3 98/167/3 94/164/3
f 103/117/3 50/54/3 58/63/3 98/167/3
f 52/56/3 51/55/3 132/168/3 133/169/3
f 132/168/3 51/55/3 106/120/3 105/119/3
f 131/166/79 130/165/79 133/169/79 132/168/79
f 50/54/80 103/117/80 106/120/80 51/55/80
f 104/118/79 131/166/79 132/168/79 105/119/79
f 130/165/81 49/53/81 52/56/81 133/169/81
f 80/92/3 134/170/3 135/171/3 81/93/3
f 135/171/3 134/170/3 76/86/3 75/85/3
f 129/162/82 78/90/82 81/93/82 135/171/82
f 79/91/80 127/160/80 134/170/80 80/92/80
f 127/160/80 73/83/80 76/86/80 134/170/80
f 74/84/79 129/162/79 135/171/79 75/85/79
f 61/66/83 60/65/83 43/47/83 42/46/83
f 136/172/84 61/66/84 42/46/84 137/173/84
f 60/65/85 138/174/85 27/27/85 43/47/85
f 138/174/86 34/38/86 139/175/86 27/27/86
f 33/37/87 136/172/87 137/173/87 140/176/87
f 34/38/88 33/37/88 140/176/88 139/175/88
f 83/96/89 141/177/89 32/35/89 27/27/89
f 141/177/90 142/178/90 101/115/90 32/35/90
f 84/97/91 83/96/91 27/27/91 139/175/91
f 142/178/92 84/97/92 139/175/92 101/115/92
f 91/105/93 90/104/93 140/176/93 137/173/93
f 143/179/94 144/180/94 102/116/94 100/114/94
f 90/104/95 96/110/95 139/175/95 140/176/95
f 145/181/96 143/179/96 100/114/96 101/115/96
f 96/110/97 145/181/97 101/115/97 139/175/97
f 144/180/98 91/105/98 137/173/98 102/116/98
f 53/57/99 146/182/99 137/173/99 42/46/99
f 54/58/100 53/57/100 42/46/100 72/82/100
f 146/182/101 147/183/101 102/116/101 137/173/101
f 147/183/102 54/58/102 72/82/102 102/116/102
f 148/184/103 63/68/103 36/40/103 35/39/103
f 63/68/104 62/67/104 149/185/104 36/40/104
f 34/38/105 138/174/105 148/184/105 35/39/105
f 61/66/106 136/172/106 149/185/106 62/67/106
f 136/172/107 33/37/107 36/40/107 149/185/107
f 138/174/108 60/65/108 63/68/108 148/184/108
f 150/186/109 86/99/109 85/98/109 151/187/109
f 141/177/110 83/96/110 86/99/110 150/186/110
f 84/97/111 142/178/111 151/187/111 85/98/111
f 142/178/112 141/177/112 150/186/112 151/187/112
f 92/106/113 152/188/113 153/189/113 93/107/113
f 93/107/114 153/189/114 154/190/114 97/111/114
f 91/105/115 144/180/115 152/188/115 92/106/115
f 143/179/116 145/181/116 154/190/116 153/189/116
f 144/180/117 143/179/117 153/189/117 152/188/117
f 145/181/118 96/110/118 97/111/118 154/190/118
f 56/60/119 55/59/119 155/191/119 156/192/119
f 147/183/120 146/182/120 156/192/120 155/191/120
f 146/182/121 53/57/121 56/60/121 156/192/121
f 54/58/122 147/183/122 155/191/122 55/59/122
